<svg width="20" height="20" viewBox="0 0 20 20" fill="none" xmlns="http://www.w3.org/2000/svg">
<path d="M8 5C7.9998 6.39064 8.41381 7.74983 9.18923 8.90421C9.96465 10.0586 11.0663 10.9559 12.3538 11.4816C13.6412 12.0073 15.0561 12.1376 16.4179 11.8559C17.7797 11.5742 19.0268 10.8933 20 9.9V10C20 15.523 15.523 20 10 20C4.477 20 0 15.523 0 10C0 4.477 4.477 0 10 0H10.1C9.43408 0.651159 8.90522 1.42901 8.54456 2.28771C8.1839 3.14642 7.99875 4.06863 8 5ZM2 10C1.99927 11.785 2.59553 13.5189 3.69389 14.926C4.79226 16.333 6.32963 17.3323 8.06141 17.7648C9.79319 18.1974 11.6199 18.0383 13.2508 17.313C14.8818 16.5876 16.2233 15.3377 17.062 13.762C15.5694 14.1136 14.0118 14.0781 12.5368 13.6587C11.0619 13.2394 9.7185 12.4501 8.63421 11.3658C7.54992 10.2815 6.76065 8.93814 6.34128 7.46318C5.92192 5.98821 5.88636 4.43056 6.238 2.938C4.95765 3.62022 3.88692 4.63777 3.1404 5.88173C2.39388 7.12569 1.99969 8.54923 2 10Z" fill="currentColor"/>
</svg>
