<svg width="21" height="21" viewBox="0 0 21 21" fill="none" xmlns="http://www.w3.org/2000/svg">
<path d="M15.4917 3.88969C15.2544 3.88969 15.0224 3.96007 14.825 4.09192C14.6277 4.22378 14.4739 4.4112 14.3831 4.63047C14.2923 4.84974 14.2685 5.09102 14.3148 5.3238C14.3611 5.55657 14.4754 5.77039 14.6432 5.93822C14.811 6.10604 15.0248 6.22033 15.2576 6.26663C15.4904 6.31293 15.7317 6.28917 15.951 6.19834C16.1702 6.10752 16.3576 5.95371 16.4895 5.75637C16.6214 5.55903 16.6917 5.32702 16.6917 5.08969C16.6917 4.77143 16.5653 4.4662 16.3403 4.24116C16.1152 4.01612 15.81 3.88969 15.4917 3.88969ZM20.0917 6.30969C20.0723 5.47999 19.9169 4.65909 19.6317 3.87969C19.3775 3.21282 18.9817 2.60897 18.4717 2.10969C17.9766 1.59711 17.3713 1.20386 16.7017 0.959687C15.9244 0.665848 15.1026 0.506897 14.2717 0.489687C13.2117 0.429687 12.8717 0.429688 10.1517 0.429688C7.43173 0.429688 7.09173 0.429687 6.03173 0.489687C5.20089 0.506897 4.37908 0.665848 3.60173 0.959687C2.93341 1.20634 2.32867 1.59925 1.83173 2.10969C1.31916 2.60487 0.92591 3.21013 0.681733 3.87969C0.387894 4.65703 0.228943 5.47884 0.211733 6.30969C0.151733 7.36969 0.151733 7.70969 0.151733 10.4297C0.151733 13.1497 0.151733 13.4897 0.211733 14.5497C0.228943 15.3805 0.387894 16.2023 0.681733 16.9797C0.92591 17.6492 1.31916 18.2545 1.83173 18.7497C2.32867 19.2601 2.93341 19.653 3.60173 19.8997C4.37908 20.1935 5.20089 20.3525 6.03173 20.3697C7.09173 20.4297 7.43173 20.4297 10.1517 20.4297C12.8717 20.4297 13.2117 20.4297 14.2717 20.3697C15.1026 20.3525 15.9244 20.1935 16.7017 19.8997C17.3713 19.6555 17.9766 19.2623 18.4717 18.7497C18.984 18.2523 19.3801 17.6479 19.6317 16.9797C19.9169 16.2003 20.0723 15.3794 20.0917 14.5497C20.0917 13.4897 20.1517 13.1497 20.1517 10.4297C20.1517 7.70969 20.1517 7.36969 20.0917 6.30969ZM18.2917 14.4297C18.2845 15.0645 18.1695 15.6934 17.9517 16.2897C17.7921 16.7249 17.5356 17.1181 17.2017 17.4397C16.8774 17.7702 16.485 18.0261 16.0517 18.1897C15.4554 18.4074 14.8265 18.5224 14.1917 18.5297C13.1917 18.5797 12.8217 18.5897 10.1917 18.5897C7.56173 18.5897 7.19173 18.5897 6.19173 18.5297C5.53262 18.542 4.87633 18.4405 4.25173 18.2297C3.83752 18.0578 3.46309 17.8025 3.15173 17.4797C2.81982 17.1584 2.56658 16.7649 2.41173 16.3297C2.16759 15.7248 2.03218 15.0816 2.01173 14.4297C2.01173 13.4297 1.95173 13.0597 1.95173 10.4297C1.95173 7.79969 1.95173 7.42969 2.01173 6.42969C2.01622 5.78074 2.13468 5.13763 2.36173 4.52969C2.53778 4.1076 2.808 3.73135 3.15173 3.42969C3.45555 3.08586 3.83102 2.81278 4.25173 2.62969C4.86128 2.40973 5.50373 2.29477 6.15173 2.28969C7.15173 2.28969 7.52173 2.22969 10.1517 2.22969C12.7817 2.22969 13.1517 2.22969 14.1517 2.28969C14.7865 2.29697 15.4154 2.41193 16.0117 2.62969C16.4662 2.79834 16.874 3.07253 17.2017 3.42969C17.5294 3.73687 17.7855 4.11242 17.9517 4.52969C18.174 5.13862 18.289 5.78147 18.2917 6.42969C18.3417 7.42969 18.3517 7.79969 18.3517 10.4297C18.3517 13.0597 18.3417 13.4297 18.2917 14.4297ZM10.1517 5.29969C9.13754 5.30166 8.1467 5.60421 7.30439 6.16911C6.46208 6.734 5.80611 7.53588 5.41937 8.47344C5.03262 9.411 4.93246 10.4422 5.13153 11.4366C5.3306 12.4311 5.81997 13.3442 6.53781 14.0607C7.25565 14.7771 8.16974 15.2647 9.16459 15.4618C10.1594 15.659 11.1904 15.5568 12.1272 15.1682C13.064 14.7797 13.8646 14.1221 14.4279 13.2787C14.9911 12.4353 15.2917 11.4439 15.2917 10.4297C15.2931 9.75479 15.1609 9.08629 14.903 8.46264C14.645 7.83899 14.2663 7.2725 13.7886 6.79574C13.3109 6.31898 12.7437 5.94137 12.1195 5.68462C11.4954 5.42787 10.8266 5.29705 10.1517 5.29969ZM10.1517 13.7597C9.49312 13.7597 8.8493 13.5644 8.30168 13.1985C7.75407 12.8326 7.32725 12.3125 7.07521 11.704C6.82317 11.0955 6.75723 10.426 6.88572 9.78004C7.01421 9.13408 7.33136 8.54073 7.79707 8.07502C8.26278 7.60931 8.85613 7.29216 9.50208 7.16367C10.148 7.03518 10.8176 7.10113 11.4261 7.35317C12.0345 7.60521 12.5546 8.03202 12.9205 8.57964C13.2864 9.12725 13.4817 9.77108 13.4817 10.4297C13.4817 10.867 13.3956 11.3 13.2283 11.704C13.0609 12.108 12.8156 12.4751 12.5064 12.7844C12.1972 13.0936 11.8301 13.3389 11.4261 13.5062C11.0221 13.6736 10.589 13.7597 10.1517 13.7597Z" fill="currentColor"/>
</svg>
