<svg width="25" height="24" viewBox="0 0 25 24" fill="none" xmlns="http://www.w3.org/2000/svg">
<path fill-rule="evenodd" clip-rule="evenodd" d="M12.1133 16C11.5613 16 11.1133 15.552 11.1133 15C11.1133 14.448 11.5613 14 12.1133 14C12.6653 14 13.1133 14.448 13.1133 15C13.1133 15.552 12.6653 16 12.1133 16ZM12.1133 12C10.4593 12 9.11328 13.346 9.11328 15C9.11328 16.654 10.4593 18 12.1133 18C13.7673 18 15.1133 16.654 15.1133 15C15.1133 13.346 13.7673 12 12.1133 12ZM18.1133 19C18.1133 19.552 17.6653 20 17.1133 20H7.11328C6.56128 20 6.11328 19.552 6.11328 19V11C6.11328 10.448 6.56128 10 7.11328 10H8.11328H10.1133H14.1133H16.1133H17.1133C17.6653 10 18.1133 10.448 18.1133 11V19ZM10.1133 6.111C10.1133 4.947 11.0103 4 12.1133 4C13.2163 4 14.1133 4.947 14.1133 6.111V8H10.1133V6.111ZM17.1133 8H16.1133V6.111C16.1133 3.845 14.3193 2 12.1133 2C9.90728 2 8.11328 3.845 8.11328 6.111V8H7.11328C5.45928 8 4.11328 9.346 4.11328 11V19C4.11328 20.654 5.45928 22 7.11328 22H17.1133C18.7673 22 20.1133 20.654 20.1133 19V11C20.1133 9.346 18.7673 8 17.1133 8Z" fill="currentColor"/>
</svg>
