<svg width="24" height="24" viewBox="0 0 21 21" fill="none" xmlns="http://www.w3.org/2000/svg">
<path d="M3.79173 15.3042L3.08173 16.0142C2.89548 16.2016 2.79094 16.455 2.79094 16.7192C2.79094 16.9834 2.89548 17.2368 3.08173 17.4242C3.2691 17.6105 3.52255 17.715 3.78673 17.715C4.05092 17.715 4.30437 17.6105 4.49173 17.4242L5.20173 16.7142C5.36556 16.5229 5.45117 16.2768 5.44144 16.0251C5.43172 15.7735 5.32739 15.5347 5.1493 15.3566C4.9712 15.1785 4.73246 15.0742 4.48079 15.0645C4.22911 15.0548 3.98303 15.1404 3.79173 15.3042ZM3.15173 10.3042C3.15173 10.039 3.04638 9.78463 2.85884 9.59709C2.6713 9.40956 2.41695 9.3042 2.15173 9.3042H1.15173C0.886517 9.3042 0.632163 9.40956 0.444627 9.59709C0.25709 9.78463 0.151733 10.039 0.151733 10.3042C0.151733 10.5694 0.25709 10.8238 0.444627 11.0113C0.632163 11.1988 0.886517 11.3042 1.15173 11.3042H2.15173C2.41695 11.3042 2.6713 11.1988 2.85884 11.0113C3.04638 10.8238 3.15173 10.5694 3.15173 10.3042ZM10.1517 3.3042C10.417 3.3042 10.6713 3.19884 10.8588 3.01131C11.0464 2.82377 11.1517 2.56942 11.1517 2.3042V1.3042C11.1517 1.03898 11.0464 0.784629 10.8588 0.597092C10.6713 0.409556 10.417 0.304199 10.1517 0.304199C9.88652 0.304199 9.63216 0.409556 9.44463 0.597092C9.25709 0.784629 9.15173 1.03898 9.15173 1.3042V2.3042C9.15173 2.56942 9.25709 2.82377 9.44463 3.01131C9.63216 3.19884 9.88652 3.3042 10.1517 3.3042ZM3.79173 5.3542C3.97799 5.53894 4.22939 5.64309 4.49173 5.6442C4.62334 5.64496 4.7538 5.61974 4.87564 5.56997C4.99748 5.52021 5.10829 5.44688 5.20173 5.3542C5.38798 5.16684 5.49253 4.91338 5.49253 4.6492C5.49253 4.38501 5.38798 4.13156 5.20173 3.9442L4.49173 3.2342C4.30043 3.07037 4.05436 2.98477 3.80268 2.99449C3.551 3.00421 3.31226 3.10854 3.13417 3.28664C2.95608 3.46473 2.85174 3.70347 2.84202 3.95515C2.8323 4.20682 2.91791 4.4529 3.08173 4.6442L3.79173 5.3542ZM15.7917 5.6442C16.0541 5.64309 16.3055 5.53894 16.4917 5.3542L17.2017 4.6442C17.3064 4.55455 17.3914 4.44423 17.4515 4.32017C17.5115 4.1961 17.5452 4.06097 17.5505 3.92325C17.5559 3.78553 17.5326 3.6482 17.4824 3.51988C17.4321 3.39155 17.3558 3.275 17.2584 3.17755C17.1609 3.08009 17.0444 3.00384 16.9161 2.95356C16.7877 2.90329 16.6504 2.88008 16.5127 2.8854C16.375 2.89072 16.2398 2.92445 16.1158 2.98447C15.9917 3.0445 15.8814 3.12952 15.7917 3.2342L15.1517 3.9442C14.9655 4.13156 14.8609 4.38501 14.8609 4.6492C14.8609 4.91338 14.9655 5.16684 15.1517 5.3542C15.328 5.52956 15.5633 5.63295 15.8117 5.6442H15.7917ZM19.1517 9.3042H18.1517C17.8865 9.3042 17.6322 9.40956 17.4446 9.59709C17.2571 9.78463 17.1517 10.039 17.1517 10.3042C17.1517 10.5694 17.2571 10.8238 17.4446 11.0113C17.6322 11.1988 17.8865 11.3042 18.1517 11.3042H19.1517C19.417 11.3042 19.6713 11.1988 19.8588 11.0113C20.0464 10.8238 20.1517 10.5694 20.1517 10.3042C20.1517 10.039 20.0464 9.78463 19.8588 9.59709C19.6713 9.40956 19.417 9.3042 19.1517 9.3042ZM10.1517 17.3042C9.88652 17.3042 9.63216 17.4096 9.44463 17.5971C9.25709 17.7846 9.15173 18.039 9.15173 18.3042V19.3042C9.15173 19.5694 9.25709 19.8238 9.44463 20.0113C9.63216 20.1988 9.88652 20.3042 10.1517 20.3042C10.417 20.3042 10.6713 20.1988 10.8588 20.0113C11.0464 19.8238 11.1517 19.5694 11.1517 19.3042V18.3042C11.1517 18.039 11.0464 17.7846 10.8588 17.5971C10.6713 17.4096 10.417 17.3042 10.1517 17.3042ZM16.5117 15.3042C16.3217 15.1985 16.1025 15.1576 15.8872 15.1877C15.6719 15.2178 15.4723 15.3173 15.3185 15.471C15.1648 15.6247 15.0654 15.8244 15.0353 16.0397C15.0052 16.255 15.0461 16.4742 15.1517 16.6642L15.8617 17.3742C16.0491 17.5604 16.3025 17.665 16.5667 17.665C16.8309 17.665 17.0844 17.5604 17.2717 17.3742C17.458 17.1868 17.5625 16.9334 17.5625 16.6692C17.5625 16.405 17.458 16.1516 17.2717 15.9642L16.5117 15.3042ZM10.1517 4.8042C9.06394 4.8042 8.00057 5.12677 7.0961 5.73112C6.19163 6.33546 5.48668 7.19445 5.0704 8.19944C4.65411 9.20443 4.5452 10.3103 4.75741 11.3772C4.96963 12.4441 5.49346 13.4241 6.26265 14.1933C7.03183 14.9625 8.01184 15.4863 9.07874 15.6985C10.1456 15.9107 11.2515 15.8018 12.2565 15.3855C13.2615 14.9693 14.1205 14.2643 14.7248 13.3598C15.3292 12.4554 15.6517 11.392 15.6517 10.3042C15.6491 8.84632 15.0688 7.44891 14.0379 6.41803C13.007 5.38715 11.6096 4.80684 10.1517 4.8042ZM10.1517 13.8042C9.4595 13.8042 8.78281 13.5989 8.20724 13.2143C7.63167 12.8298 7.18306 12.2831 6.91815 11.6436C6.65325 11.004 6.58394 10.3003 6.71898 9.62138C6.85403 8.94245 7.18738 8.31881 7.67686 7.82933C8.16634 7.33984 8.78998 7.0065 9.46892 6.87145C10.1479 6.7364 10.8516 6.80571 11.4911 7.07062C12.1307 7.33553 12.6773 7.78413 13.0619 8.3597C13.4465 8.93528 13.6517 9.61196 13.6517 10.3042C13.6517 11.2325 13.283 12.1227 12.6266 12.7791C11.9702 13.4354 11.08 13.8042 10.1517 13.8042Z" fill="currentColor"/>
</svg>
