<svg width="21" height="21" viewBox="0 0 21 21" fill="none" xmlns="http://www.w3.org/2000/svg">
<path d="M18.6213 0.429827H1.6813C1.49088 0.427183 1.3018 0.462075 1.12487 0.532511C0.947934 0.602947 0.786607 0.707548 0.650101 0.840339C0.513595 0.973131 0.404585 1.13151 0.329296 1.30644C0.254006 1.48136 0.213912 1.66941 0.211304 1.85983V18.9998C0.213912 19.1902 0.254006 19.3783 0.329296 19.5532C0.404585 19.7281 0.513595 19.8865 0.650101 20.0193C0.786607 20.1521 0.947934 20.2567 1.12487 20.3271C1.3018 20.3976 1.49088 20.4325 1.6813 20.4298H18.6213C18.8117 20.4325 19.0008 20.3976 19.1777 20.3271C19.3547 20.2567 19.516 20.1521 19.6525 20.0193C19.789 19.8865 19.898 19.7281 19.9733 19.5532C20.0486 19.3783 20.0887 19.1902 20.0913 18.9998V1.85983C20.0887 1.66941 20.0486 1.48136 19.9733 1.30644C19.898 1.13151 19.789 0.973131 19.6525 0.840339C19.516 0.707548 19.3547 0.602947 19.1777 0.532511C19.0008 0.462075 18.8117 0.427183 18.6213 0.429827ZM6.2413 17.1698H3.2413V8.16983H6.2413V17.1698ZM4.7413 6.90983C4.32757 6.90983 3.93077 6.74547 3.63822 6.45291C3.34566 6.16036 3.1813 5.76357 3.1813 5.34983C3.1813 4.93609 3.34566 4.5393 3.63822 4.24674C3.93077 3.95418 4.32757 3.78983 4.7413 3.78983C4.961 3.76491 5.18348 3.78668 5.39418 3.85371C5.60488 3.92074 5.79904 4.03152 5.96396 4.17879C6.12888 4.32606 6.26083 4.50651 6.35117 4.70831C6.44152 4.91011 6.48822 5.12872 6.48822 5.34983C6.48822 5.57093 6.44152 5.78954 6.35117 5.99134C6.26083 6.19315 6.12888 6.37359 5.96396 6.52087C5.79904 6.66814 5.60488 6.77891 5.39418 6.84594C5.18348 6.91297 4.961 6.93474 4.7413 6.90983ZM17.0613 17.1698H14.0613V12.3398C14.0613 11.1298 13.6313 10.3398 12.5413 10.3398C12.204 10.3423 11.8755 10.4481 11.6001 10.643C11.3248 10.8379 11.1158 11.1125 11.0013 11.4298C10.923 11.6649 10.8891 11.9124 10.9013 12.1598V17.1598H7.9013C7.9013 17.1598 7.9013 8.97983 7.9013 8.15983H10.9013V9.42983C11.1738 8.95693 11.5702 8.56735 12.0477 8.30303C12.5253 8.03871 13.0659 7.90968 13.6113 7.92983C15.6113 7.92983 17.0613 9.21983 17.0613 11.9898V17.1698Z" fill="currentColor"/> 
</svg>
