<svg width="21" height="20" viewBox="0 0 21 20" fill="none" xmlns="http://www.w3.org/2000/svg">
<path fill-rule="evenodd" clip-rule="evenodd" d="M15.9479 15.0002H4.28125C3.82208 15.0002 3.44792 14.6268 3.44792 14.1668V6.04183L9.61458 10.6668C9.76292 10.7785 9.93875 10.8335 10.1146 10.8335C10.2904 10.8335 10.4663 10.7785 10.6146 10.6668L16.7812 6.04183V14.1668C16.7812 14.6268 16.4071 15.0002 15.9479 15.0002ZM15.3921 5.00016L10.1146 8.9585L4.83708 5.00016H15.3921ZM15.9479 3.3335H4.28125C2.90292 3.3335 1.78125 4.45516 1.78125 5.8335V14.1668C1.78125 15.5452 2.90292 16.6668 4.28125 16.6668H15.9479C17.3263 16.6668 18.4479 15.5452 18.4479 14.1668V5.8335C18.4479 4.45516 17.3263 3.3335 15.9479 3.3335Z" fill="currentColor"/>
</svg>
