<svg width="20" height="20" viewBox="0 0 20 21" fill="none" xmlns="http://www.w3.org/2000/svg">
<path d="M8 5.1084C7.9998 6.49904 8.41381 7.85823 9.18923 9.01261C9.96465 10.167 11.0663 11.0643 12.3538 11.59C13.6412 12.1157 15.0561 12.246 16.4179 11.9643C17.7797 11.6826 19.0268 11.0017 20 10.0084V10.1084C20 15.6314 15.523 20.1084 10 20.1084C4.477 20.1084 0 15.6314 0 10.1084C0 4.5854 4.477 0.108398 10 0.108398H10.1C9.43408 0.759558 8.90522 1.5374 8.54456 2.39611C8.1839 3.25482 7.99875 4.17703 8 5.1084ZM2 10.1084C1.99927 11.8934 2.59553 13.6273 3.69389 15.0344C4.79226 16.4414 6.32963 17.4407 8.06141 17.8732C9.79319 18.3058 11.6199 18.1467 13.2508 17.4214C14.8818 16.696 16.2233 15.4461 17.062 13.8704C15.5694 14.222 14.0118 14.1865 12.5368 13.7671C11.0619 13.3478 9.7185 12.5585 8.63421 11.4742C7.54992 10.3899 6.76065 9.04654 6.34128 7.57158C5.92192 6.09661 5.88636 4.53896 6.238 3.0464C4.95765 3.72862 3.88692 4.74617 3.1404 5.99013C2.39388 7.23409 1.99969 8.65763 2 10.1084Z" fill="currentColor"/>
</svg>
