<svg width="24" height="24" viewBox="0 0 24 24" fill="none" xmlns="http://www.w3.org/2000/svg">
<path fill-rule="evenodd" clip-rule="evenodd" d="M12 14H9C8.448 14 8 13.552 8 13C8 12.448 8.448 12 9 12H12C12.552 12 13 12.448 13 13C13 13.552 12.552 14 12 14ZM8 17C8 16.448 8.448 16 9 16H15C15.553 16 16 16.448 16 17C16 17.552 15.553 18 15 18H9C8.448 18 8 17.552 8 17ZM17.444 20H6.555C6.249 20 6 19.776 6 19.5V4.5C6 4.224 6.249 4 6.555 4H12V7.15C12 8.722 13.217 10 14.714 10H18V19.5C18 19.776 17.751 20 17.444 20ZM14 4.978L16.742 8H14.714C14.32 8 14 7.619 14 7.15V4.978ZM19.74 8.328L14.296 2.328C14.106 2.119 13.838 2 13.555 2H6.555C5.146 2 4 3.122 4 4.5V19.5C4 20.878 5.146 22 6.555 22H17.444C18.853 22 20 20.878 20 19.5V9C20 8.751 19.907 8.512 19.74 8.328Z" fill="currentColor"/>
</svg>
