<svg width="24" height="24" viewBox="0 0 24 24" fill="none" xmlns="http://www.w3.org/2000/svg">
<path fill-rule="evenodd" clip-rule="evenodd" d="M5.91425 4.99976H17.9102C19.8892 4.99976 21.5002 6.58276 21.5002 8.52876V10.9998C21.5002 11.5528 21.0532 11.9998 20.5002 11.9998C19.9473 11.9998 19.5002 11.5528 19.5002 10.9998V8.52876C19.5002 7.68676 18.7873 6.99976 17.9102 6.99976H5.91425L7.20725 8.29276C7.59725 8.68376 7.59725 9.31576 7.20725 9.70676C7.01225 9.90176 6.75625 9.99976 6.50025 9.99976C6.24425 9.99976 5.98825 9.90176 5.79325 9.70676L2.79325 6.70676C2.40225 6.31576 2.40225 5.68376 2.79325 5.29276L5.79325 2.29276C6.18325 1.90176 6.81625 1.90176 7.20725 2.29276C7.59725 2.68376 7.59725 3.31576 7.20725 3.70676L5.91425 4.99976ZM16.793 14.293C17.184 13.902 17.816 13.902 18.207 14.293L21.207 17.293C21.598 17.684 21.598 18.316 21.207 18.707L18.207 21.707C18.012 21.902 17.756 22 17.5 22C17.244 22 16.988 21.902 16.793 21.707C16.402 21.316 16.402 20.684 16.793 20.293L18.086 19H6.09C4.11 19 2.5 17.417 2.5 15.471V13C2.5 12.447 2.948 12 3.5 12C4.052 12 4.5 12.447 4.5 13V15.471C4.5 16.314 5.213 17 6.09 17H18.086L16.793 15.707C16.402 15.316 16.402 14.684 16.793 14.293Z" fill="currentColor"/>
</svg>
